# xmcd
#
# Track frame offsets:
#	150
#	14070
#	30500
#	44647
#	59461
#
# Disc length: 1004 seconds
#
# Revision: 1
# Processed by: cddbd v1.4PL0 Copyright (c) Steve Scherf et al.
# Submitted via: EasyCDDAExtractor 6.2.0.3
#
DISCID=4103ea05
DTITLE=Lindsey Ridener - Faith
DYEAR=2003
DGENRE=Country
TTITLE0=Your Coffee's On The Table
TTITLE1=A Love Worth Dying For
TTITLE2=This Could Take All Night
TTITLE3=In A Blink Of An Eye Love You
TTITLE4=Fifteen Dollars And A Dime
EXTD=
EXTT0=
EXTT1=
EXTT2=
EXTT3=
EXTT4=
PLAYORDER=
